<svg width="1518" height="252" viewBox="0 0 1518 252" fill="none" xmlns="http://www.w3.org/2000/svg">
<circle cx="342.604" cy="149.34" r="1.75694" transform="rotate(-180 342.604 149.34)" fill="white" fill-opacity="0.1"/>
<circle cx="407.611" cy="180.965" r="1.75694" transform="rotate(-180 407.611 180.965)" fill="#8286FC"/>
<circle cx="488.431" cy="137.042" r="1.75694" transform="rotate(-180 488.431 137.042)" fill="white" fill-opacity="0.1"/>
<circle cx="426.938" cy="140.555" r="1.75694" transform="rotate(-180 426.938 140.555)" fill="white" fill-opacity="0.1"/>
<circle cx="470.861" cy="207.319" r="1.75694" transform="rotate(-180 470.861 207.319)" fill="white" fill-opacity="0.1"/>
<circle cx="544.653" cy="33.3817" r="1.75694" transform="rotate(-180 544.653 33.3817)" fill="white" fill-opacity="0.1"/>
<circle cx="404.097" cy="5.27089" r="1.75694" transform="rotate(-180 404.097 5.27089)" fill="#8286FC"/>
<circle cx="242.459" cy="152.854" r="1.75694" transform="rotate(-180 242.459 152.854)" fill="white" fill-opacity="0.1"/>
<circle cx="189.75" cy="168.667" r="1.75694" transform="rotate(-180 189.75 168.667)" fill="white" fill-opacity="0.1"/>
<circle cx="98.3892" cy="31.6249" r="1.75694" transform="rotate(-180 98.3892 31.6249)" fill="white" fill-opacity="0.1"/>
<circle cx="1.75722" cy="147.583" r="1.75694" transform="rotate(-180 1.75722 147.583)" fill="white" fill-opacity="0.1"/>
<circle cx="562.222" cy="112.444" r="1.75694" transform="rotate(-180 562.222 112.444)" fill="white" fill-opacity="0.1"/>
<circle cx="339.09" cy="210.833" r="1.75694" transform="rotate(-180 339.09 210.833)" fill="#8286FC"/>
<circle cx="66.7642" cy="170.423" r="1.75694" transform="rotate(-180 66.7642 170.423)" fill="white" fill-opacity="0.1"/>
<circle cx="110.688" cy="221.375" r="1.75694" transform="rotate(-180 110.688 221.375)" fill="white" fill-opacity="0.1"/>
<circle cx="17.5696" cy="31.6249" r="1.75694" transform="rotate(-180 17.5696 31.6249)" fill="white" fill-opacity="0.1"/>
<circle cx="504.243" cy="184.479" r="1.75694" transform="rotate(-180 504.243 184.479)" fill="#8286FC"/>
<circle cx="63.2503" cy="96.6317" r="1.75694" transform="rotate(-180 63.2503 96.6317)" fill="#8286FC"/>
<circle cx="216.105" cy="195.021" r="1.75694" transform="rotate(-180 216.105 195.021)" fill="#8286FC"/>
<circle cx="217.861" cy="1.75673" r="1.75694" transform="rotate(-180 217.861 1.75673)" fill="white" fill-opacity="0.1"/>
<circle cx="539.382" cy="73.7919" r="1.75694" fill="white" fill-opacity="0.1"/>
<circle cx="474.375" cy="42.1669" r="1.75694" fill="#8286FC"/>
<circle cx="563.979" cy="147.583" r="1.75694" fill="#8286FC"/>
<circle cx="757.243" cy="137.042" r="1.75694" fill="#8286FC"/>
<circle cx="393.556" cy="86.0902" r="1.75694" fill="white" fill-opacity="0.1"/>
<circle cx="455.049" cy="82.5765" r="1.75694" fill="white" fill-opacity="0.1"/>
<circle cx="411.125" cy="15.8126" r="1.75694" fill="white" fill-opacity="0.1"/>
<circle cx="337.333" cy="189.75" r="1.75694" fill="white" fill-opacity="0.1"/>
<circle cx="477.889" cy="217.861" r="1.75694" fill="#8286FC"/>
<circle cx="639.528" cy="70.2777" r="1.75694" fill="white" fill-opacity="0.1"/>
<circle cx="692.236" cy="54.4652" r="1.75694" fill="white" fill-opacity="0.1"/>
<circle cx="783.597" cy="191.507" r="1.75694" fill="white" fill-opacity="0.1"/>
<circle cx="880.229" cy="75.5487" r="1.75694" fill="white" fill-opacity="0.1"/>
<circle cx="319.764" cy="110.688" r="1.75694" fill="white" fill-opacity="0.1"/>
<circle cx="542.896" cy="12.2987" r="1.75694" fill="#8286FC"/>
<circle cx="815.222" cy="52.7084" r="1.75694" fill="white" fill-opacity="0.1"/>
<circle cx="771.298" cy="1.75694" r="1.75694" fill="white" fill-opacity="0.1"/>
<circle cx="864.417" cy="191.507" r="1.75694" fill="white" fill-opacity="0.1"/>
<circle cx="377.743" cy="38.6527" r="1.75694" fill="#8286FC"/>
<circle cx="818.736" cy="126.5" r="1.75694" fill="#8286FC"/>
<circle cx="665.882" cy="28.1112" r="1.75694" fill="#8286FC"/>
<circle cx="664.125" cy="221.375" r="1.75694" fill="white" fill-opacity="0.1"/>
<circle cx="978.618" cy="149.34" r="1.75694" transform="rotate(-180 978.618 149.34)" fill="white" fill-opacity="0.1"/>
<circle cx="1043.63" cy="180.965" r="1.75694" transform="rotate(-180 1043.63 180.965)" fill="#8286FC"/>
<circle cx="1124.44" cy="137.042" r="1.75694" transform="rotate(-180 1124.44 137.042)" fill="white" fill-opacity="0.1"/>
<circle cx="1062.95" cy="140.555" r="1.75694" transform="rotate(-180 1062.95 140.555)" fill="white" fill-opacity="0.1"/>
<circle cx="1106.88" cy="207.319" r="1.75694" transform="rotate(-180 1106.88 207.319)" fill="white" fill-opacity="0.1"/>
<circle cx="1180.67" cy="33.3817" r="1.75694" transform="rotate(-180 1180.67 33.3817)" fill="white" fill-opacity="0.1"/>
<circle cx="1040.11" cy="5.27089" r="1.75694" transform="rotate(-180 1040.11 5.27089)" fill="#8286FC"/>
<circle cx="878.473" cy="152.854" r="1.75694" transform="rotate(-180 878.473 152.854)" fill="white" fill-opacity="0.1"/>
<circle cx="825.764" cy="168.667" r="1.75694" transform="rotate(-180 825.764 168.667)" fill="white" fill-opacity="0.1"/>
<circle cx="734.403" cy="31.6249" r="1.75694" transform="rotate(-180 734.403 31.6249)" fill="white" fill-opacity="0.1"/>
<circle cx="637.771" cy="147.583" r="1.75694" transform="rotate(-180 637.771 147.583)" fill="white" fill-opacity="0.1"/>
<circle cx="1198.24" cy="112.444" r="1.75694" transform="rotate(-180 1198.24 112.444)" fill="white" fill-opacity="0.1"/>
<circle cx="975.104" cy="210.833" r="1.75694" transform="rotate(-180 975.104 210.833)" fill="#8286FC"/>
<circle cx="702.778" cy="170.423" r="1.75694" transform="rotate(-180 702.778 170.423)" fill="white" fill-opacity="0.1"/>
<circle cx="746.702" cy="221.375" r="1.75694" transform="rotate(-180 746.702 221.375)" fill="white" fill-opacity="0.1"/>
<circle cx="653.584" cy="31.6249" r="1.75694" transform="rotate(-180 653.584 31.6249)" fill="white" fill-opacity="0.1"/>
<circle cx="1140.26" cy="184.479" r="1.75694" transform="rotate(-180 1140.26 184.479)" fill="#8286FC"/>
<circle cx="699.264" cy="96.6317" r="1.75694" transform="rotate(-180 699.264 96.6317)" fill="#8286FC"/>
<circle cx="852.118" cy="195.021" r="1.75694" transform="rotate(-180 852.118 195.021)" fill="#8286FC"/>
<circle cx="853.875" cy="1.75673" r="1.75694" transform="rotate(-180 853.875 1.75673)" fill="white" fill-opacity="0.1"/>
<circle cx="1175.4" cy="73.7919" r="1.75694" fill="white" fill-opacity="0.1"/>
<circle cx="1110.39" cy="42.1669" r="1.75694" fill="#8286FC"/>
<circle cx="1029.57" cy="86.0902" r="1.75694" fill="white" fill-opacity="0.1"/>
<circle cx="1091.06" cy="82.5765" r="1.75694" fill="white" fill-opacity="0.1"/>
<circle cx="1047.14" cy="15.8126" r="1.75694" fill="white" fill-opacity="0.1"/>
<circle cx="973.347" cy="189.75" r="1.75694" fill="white" fill-opacity="0.1"/>
<circle cx="1113.9" cy="217.861" r="1.75694" fill="#8286FC"/>
<circle cx="1275.54" cy="70.2777" r="1.75694" fill="white" fill-opacity="0.1"/>
<circle cx="1328.25" cy="54.4652" r="1.75694" fill="white" fill-opacity="0.1"/>
<circle cx="1419.61" cy="191.507" r="1.75694" fill="white" fill-opacity="0.1"/>
<circle cx="1516.24" cy="75.5487" r="1.75694" fill="white" fill-opacity="0.1"/>
<circle cx="955.778" cy="110.688" r="1.75694" fill="white" fill-opacity="0.1"/>
<circle cx="1178.91" cy="12.2987" r="1.75694" fill="#8286FC"/>
<circle cx="1451.24" cy="52.7084" r="1.75694" fill="white" fill-opacity="0.1"/>
<circle cx="1407.31" cy="1.75694" r="1.75694" fill="white" fill-opacity="0.1"/>
<circle cx="1500.43" cy="191.507" r="1.75694" fill="white" fill-opacity="0.1"/>
<circle cx="1013.76" cy="38.6527" r="1.75694" fill="#8286FC"/>
<circle cx="1454.75" cy="126.5" r="1.75694" fill="#8286FC"/>
<circle cx="1301.9" cy="28.1112" r="1.75694" fill="#8286FC"/>
<circle cx="1300.14" cy="221.375" r="1.75694" fill="white" fill-opacity="0.1"/>
</svg>
