<svg width="1920" height="1382" viewBox="0 0 1920 1382" fill="none" xmlns="http://www.w3.org/2000/svg">
<g clip-path="url(#clip0_117_10063)">
<mask id="mask0_117_10063" style="mask-type:alpha" maskUnits="userSpaceOnUse" x="-842" y="-228" width="3625" height="2050">
<path fill-rule="evenodd" clip-rule="evenodd" d="M1006.08 -227.913H814.574L886.949 1433.6L935.951 1433.6L1006.08 1433.6L1055.08 1433.6L1127.46 -227.913L1006.08 -227.913Z" fill="#4600A0"/>
<path fill-rule="evenodd" clip-rule="evenodd" d="M1600.55 -166.165L1785.54 -116.6L1285.59 1469.57L1238.26 1456.89L1170.52 1438.74L1123.19 1426.05L1483.31 -197.58L1600.55 -166.165Z" fill="#4600A0"/>
<path fill-rule="evenodd" clip-rule="evenodd" d="M2238.7 179.374L2072.85 83.6216L1304.77 1558.72L1347.21 1583.22L1407.94 1618.29L1450.38 1642.79L2343.81 240.063L2238.7 179.374Z" fill="#4600A0"/>
<path fill-rule="evenodd" clip-rule="evenodd" d="M2647.09 561.9L2782.5 697.315L1556.46 1821.01L1521.81 1786.36L1472.22 1736.77L1437.57 1702.12L2561.26 476.073L2647.09 561.9Z" fill="#4600A0"/>
<path fill-rule="evenodd" clip-rule="evenodd" d="M340.403 -166.165L155.422 -116.6L655.363 1469.57L702.695 1456.89L817.767 1426.05L457.644 -197.58L340.403 -166.165L340.403 -166.165Z" fill="#4600A0"/>
<path fill-rule="evenodd" clip-rule="evenodd" d="M-297.74 179.374L-131.891 83.6211L636.188 1558.72L593.751 1583.22L533.018 1618.29L490.581 1642.79L-402.855 240.062L-297.74 179.374Z" fill="#4600A0"/>
<path fill-rule="evenodd" clip-rule="evenodd" d="M-706.132 561.9L-841.547 697.315L384.499 1821.01L419.148 1786.36L468.737 1736.77L503.386 1702.12L-620.305 476.073L-706.132 561.9L-706.132 561.9Z" fill="#4600A0"/>
</mask>
<g mask="url(#mask0_117_10063)">
<g opacity="0.1" filter="url(#filter0_f_117_10063)">
<circle cx="984.502" cy="1382.35" r="1359.42" fill="url(#paint0_radial_117_10063)"/>
</g>
</g>
<g opacity="0.5">
<g filter="url(#filter1_f_117_10063)">
<circle cx="960.015" cy="1379.66" r="393.801" fill="#8C42FF" fill-opacity="0.5"/>
</g>
<g filter="url(#filter2_f_117_10063)">
<circle cx="960.017" cy="1379.66" r="228.658" fill="#8C42FF"/>
</g>
<g filter="url(#filter3_f_117_10063)">
<circle cx="960.013" cy="1379.66" r="63.5162" fill="white"/>
</g>
</g>
<g filter="url(#filter4_f_117_10063)">
<ellipse cx="971.015" cy="1402.58" rx="314.231" ry="40.459" fill="#7D1AFF"/>
</g>
<rect y="1379.66" width="1942.03" height="2.69726" fill="url(#paint1_linear_117_10063)"/>
<mask id="mask1_117_10063" style="mask-type:alpha" maskUnits="userSpaceOnUse" x="0" y="1120" width="1920" height="260">
<rect y="1120" width="1920" height="260" fill="url(#paint2_radial_117_10063)"/>
</mask>
<g mask="url(#mask1_117_10063)">
<circle cx="579" cy="1295.67" r="1" transform="rotate(-180 579 1295.67)" fill="white" fill-opacity="0.1"/>
<circle cx="616" cy="1313.67" r="1" transform="rotate(-180 616 1313.67)" fill="#8286FC"/>
<circle cx="662" cy="1288.67" r="1" transform="rotate(-180 662 1288.67)" fill="white" fill-opacity="0.1"/>
<circle cx="627" cy="1290.67" r="1" transform="rotate(-180 627 1290.67)" fill="white" fill-opacity="0.1"/>
<circle cx="652" cy="1328.67" r="1" transform="rotate(-180 652 1328.67)" fill="white" fill-opacity="0.1"/>
<circle cx="694" cy="1229.67" r="1" transform="rotate(-180 694 1229.67)" fill="white" fill-opacity="0.1"/>
<circle cx="614" cy="1213.67" r="1" transform="rotate(-180 614 1213.67)" fill="#8286FC"/>
<circle cx="522" cy="1297.67" r="1" transform="rotate(-180 522 1297.67)" fill="white" fill-opacity="0.1"/>
<circle cx="492" cy="1306.67" r="1" transform="rotate(-180 492 1306.67)" fill="white" fill-opacity="0.1"/>
<circle cx="440" cy="1228.67" r="1" transform="rotate(-180 440 1228.67)" fill="white" fill-opacity="0.1"/>
<circle cx="385" cy="1294.67" r="1" transform="rotate(-180 385 1294.67)" fill="white" fill-opacity="0.1"/>
<circle cx="704" cy="1274.67" r="1" transform="rotate(-180 704 1274.67)" fill="white" fill-opacity="0.1"/>
<circle cx="577" cy="1330.67" r="1" transform="rotate(-180 577 1330.67)" fill="#8286FC"/>
<circle cx="422" cy="1307.67" r="1" transform="rotate(-180 422 1307.67)" fill="white" fill-opacity="0.1"/>
<circle cx="447" cy="1336.67" r="1" transform="rotate(-180 447 1336.67)" fill="white" fill-opacity="0.1"/>
<circle cx="394" cy="1228.67" r="1" transform="rotate(-180 394 1228.67)" fill="white" fill-opacity="0.1"/>
<circle cx="671" cy="1315.67" r="1" transform="rotate(-180 671 1315.67)" fill="#8286FC"/>
<circle cx="420" cy="1265.67" r="1" transform="rotate(-180 420 1265.67)" fill="#8286FC"/>
<circle cx="507" cy="1321.67" r="1" transform="rotate(-180 507 1321.67)" fill="#8286FC"/>
<circle cx="508" cy="1211.67" r="1" transform="rotate(-180 508 1211.67)" fill="white" fill-opacity="0.1"/>
<circle cx="691" cy="1252.67" r="1" fill="white" fill-opacity="0.1"/>
<circle cx="654" cy="1234.67" r="1" fill="#8286FC"/>
<circle cx="705" cy="1294.67" r="1" fill="#8286FC"/>
<circle cx="815" cy="1288.67" r="1" fill="#8286FC"/>
<circle cx="608" cy="1259.67" r="1" fill="white" fill-opacity="0.1"/>
<circle cx="643" cy="1257.67" r="1" fill="white" fill-opacity="0.1"/>
<circle cx="618" cy="1219.67" r="1" fill="white" fill-opacity="0.1"/>
<circle cx="576" cy="1318.67" r="1" fill="white" fill-opacity="0.1"/>
<circle cx="656" cy="1334.67" r="1" fill="#8286FC"/>
<circle cx="748" cy="1250.67" r="1" fill="white" fill-opacity="0.1"/>
<circle cx="778" cy="1241.67" r="1" fill="white" fill-opacity="0.1"/>
<circle cx="830" cy="1319.67" r="1" fill="white" fill-opacity="0.1"/>
<circle cx="885" cy="1253.67" r="1" fill="white" fill-opacity="0.1"/>
<circle cx="566" cy="1273.67" r="1" fill="white" fill-opacity="0.1"/>
<circle cx="693" cy="1217.67" r="1" fill="#8286FC"/>
<circle cx="848" cy="1240.67" r="1" fill="white" fill-opacity="0.1"/>
<circle cx="823" cy="1211.67" r="1" fill="white" fill-opacity="0.1"/>
<circle cx="876" cy="1319.67" r="1" fill="white" fill-opacity="0.1"/>
<circle cx="599" cy="1232.67" r="1" fill="#8286FC"/>
<circle cx="850" cy="1282.67" r="1" fill="#8286FC"/>
<circle cx="763" cy="1226.67" r="1" fill="#8286FC"/>
<circle cx="762" cy="1336.67" r="1" fill="white" fill-opacity="0.1"/>
<circle cx="941" cy="1295.67" r="1" transform="rotate(-180 941 1295.67)" fill="white" fill-opacity="0.1"/>
<circle cx="978" cy="1313.67" r="1" transform="rotate(-180 978 1313.67)" fill="#8286FC"/>
<circle cx="1024" cy="1288.67" r="1" transform="rotate(-180 1024 1288.67)" fill="white" fill-opacity="0.1"/>
<circle cx="989" cy="1290.67" r="1" transform="rotate(-180 989 1290.67)" fill="white" fill-opacity="0.1"/>
<circle cx="1014" cy="1328.67" r="1" transform="rotate(-180 1014 1328.67)" fill="white" fill-opacity="0.1"/>
<circle cx="1056" cy="1229.67" r="1" transform="rotate(-180 1056 1229.67)" fill="white" fill-opacity="0.1"/>
<circle cx="976" cy="1213.67" r="1" transform="rotate(-180 976 1213.67)" fill="#8286FC"/>
<circle cx="884" cy="1297.67" r="1" transform="rotate(-180 884 1297.67)" fill="white" fill-opacity="0.1"/>
<circle cx="854" cy="1306.67" r="1" transform="rotate(-180 854 1306.67)" fill="white" fill-opacity="0.1"/>
<circle cx="802" cy="1228.67" r="1" transform="rotate(-180 802 1228.67)" fill="white" fill-opacity="0.1"/>
<circle cx="747" cy="1294.67" r="1" transform="rotate(-180 747 1294.67)" fill="white" fill-opacity="0.1"/>
<circle cx="1066" cy="1274.67" r="1" transform="rotate(-180 1066 1274.67)" fill="white" fill-opacity="0.1"/>
<circle cx="939" cy="1330.67" r="1" transform="rotate(-180 939 1330.67)" fill="#8286FC"/>
<circle cx="784" cy="1307.67" r="1" transform="rotate(-180 784 1307.67)" fill="white" fill-opacity="0.1"/>
<circle cx="809" cy="1336.67" r="1" transform="rotate(-180 809 1336.67)" fill="white" fill-opacity="0.1"/>
<circle cx="756" cy="1228.67" r="1" transform="rotate(-180 756 1228.67)" fill="white" fill-opacity="0.1"/>
<circle cx="1033" cy="1315.67" r="1" transform="rotate(-180 1033 1315.67)" fill="#8286FC"/>
<circle cx="782" cy="1265.67" r="1" transform="rotate(-180 782 1265.67)" fill="#8286FC"/>
<circle cx="869" cy="1321.67" r="1" transform="rotate(-180 869 1321.67)" fill="#8286FC"/>
<circle cx="870" cy="1211.67" r="1" transform="rotate(-180 870 1211.67)" fill="white" fill-opacity="0.1"/>
<circle cx="1053" cy="1252.67" r="1" fill="white" fill-opacity="0.1"/>
<circle cx="1016" cy="1234.67" r="1" fill="#8286FC"/>
<circle cx="970" cy="1259.67" r="1" fill="white" fill-opacity="0.1"/>
<circle cx="1005" cy="1257.67" r="1" fill="white" fill-opacity="0.1"/>
<circle cx="980" cy="1219.67" r="1" fill="white" fill-opacity="0.1"/>
<circle cx="938" cy="1318.67" r="1" fill="white" fill-opacity="0.1"/>
<circle cx="1018" cy="1334.67" r="1" fill="#8286FC"/>
<circle cx="1110" cy="1250.67" r="1" fill="white" fill-opacity="0.1"/>
<circle cx="1140" cy="1241.67" r="1" fill="white" fill-opacity="0.1"/>
<circle cx="1192" cy="1319.67" r="1" fill="white" fill-opacity="0.1"/>
<circle cx="1247" cy="1253.67" r="1" fill="white" fill-opacity="0.1"/>
<circle cx="928" cy="1273.67" r="1" fill="white" fill-opacity="0.1"/>
<circle cx="1055" cy="1217.67" r="1" fill="#8286FC"/>
<circle cx="1210" cy="1240.67" r="1" fill="white" fill-opacity="0.1"/>
<circle cx="1185" cy="1211.67" r="1" fill="white" fill-opacity="0.1"/>
<circle cx="1238" cy="1319.67" r="1" fill="white" fill-opacity="0.1"/>
<circle cx="961" cy="1232.67" r="1" fill="#8286FC"/>
<circle cx="1212" cy="1282.67" r="1" fill="#8286FC"/>
<circle cx="1125" cy="1226.67" r="1" fill="#8286FC"/>
<circle cx="1124" cy="1336.67" r="1" fill="white" fill-opacity="0.1"/>
</g>
<g opacity="0.4">
<g filter="url(#filter5_f_117_10063)">
<circle cx="562" cy="685" r="292" fill="#8C42FF" fill-opacity="0.5"/>
</g>
<g filter="url(#filter6_f_117_10063)">
<circle cx="515" cy="685" r="120" fill="#8C42FF"/>
</g>
<g filter="url(#filter7_f_117_10063)">
<circle cx="561.998" cy="685" r="47.0968" fill="#8C42FF"/>
</g>
</g>
<g opacity="0.4">
<g filter="url(#filter8_f_117_10063)">
<circle cx="1410" cy="726" r="292" transform="rotate(-180 1410 726)" fill="#8C42FF" fill-opacity="0.5"/>
</g>
<g filter="url(#filter9_f_117_10063)">
<circle cx="1457" cy="726" r="120" transform="rotate(-180 1457 726)" fill="#8C42FF"/>
</g>
<g filter="url(#filter10_f_117_10063)">
<circle cx="1410" cy="726" r="47.0968" transform="rotate(-180 1410 726)" fill="#8C42FF"/>
</g>
</g>
</g>
<defs>
<filter id="filter0_f_117_10063" x="-509.782" y="-111.929" width="2988.57" height="2988.57" filterUnits="userSpaceOnUse" color-interpolation-filters="sRGB">
<feFlood flood-opacity="0" result="BackgroundImageFix"/>
<feBlend mode="normal" in="SourceGraphic" in2="BackgroundImageFix" result="shape"/>
<feGaussianBlur stdDeviation="67.4316" result="effect1_foregroundBlur_117_10063"/>
</filter>
<filter id="filter1_f_117_10063" x="-145.167" y="274.475" width="2210.37" height="2210.37" filterUnits="userSpaceOnUse" color-interpolation-filters="sRGB">
<feFlood flood-opacity="0" result="BackgroundImageFix"/>
<feBlend mode="normal" in="SourceGraphic" in2="BackgroundImageFix" result="shape"/>
<feGaussianBlur stdDeviation="355.691" result="effect1_foregroundBlur_117_10063"/>
</filter>
<filter id="filter2_f_117_10063" x="324.855" y="744.495" width="1270.32" height="1270.32" filterUnits="userSpaceOnUse" color-interpolation-filters="sRGB">
<feFlood flood-opacity="0" result="BackgroundImageFix"/>
<feBlend mode="normal" in="SourceGraphic" in2="BackgroundImageFix" result="shape"/>
<feGaussianBlur stdDeviation="203.252" result="effect1_foregroundBlur_117_10063"/>
</filter>
<filter id="filter3_f_117_10063" x="693.244" y="1112.89" width="533.536" height="533.536" filterUnits="userSpaceOnUse" color-interpolation-filters="sRGB">
<feFlood flood-opacity="0" result="BackgroundImageFix"/>
<feBlend mode="normal" in="SourceGraphic" in2="BackgroundImageFix" result="shape"/>
<feGaussianBlur stdDeviation="101.626" result="effect1_foregroundBlur_117_10063"/>
</filter>
<filter id="filter4_f_117_10063" x="521.921" y="1227.26" width="898.189" height="350.644" filterUnits="userSpaceOnUse" color-interpolation-filters="sRGB">
<feFlood flood-opacity="0" result="BackgroundImageFix"/>
<feBlend mode="normal" in="SourceGraphic" in2="BackgroundImageFix" result="shape"/>
<feGaussianBlur stdDeviation="67.4316" result="effect1_foregroundBlur_117_10063"/>
</filter>
<filter id="filter5_f_117_10063" x="-257.484" y="-134.484" width="1638.97" height="1638.97" filterUnits="userSpaceOnUse" color-interpolation-filters="sRGB">
<feFlood flood-opacity="0" result="BackgroundImageFix"/>
<feBlend mode="normal" in="SourceGraphic" in2="BackgroundImageFix" result="shape"/>
<feGaussianBlur stdDeviation="263.742" result="effect1_foregroundBlur_117_10063"/>
</filter>
<filter id="filter6_f_117_10063" x="93.5806" y="263.581" width="842.839" height="842.839" filterUnits="userSpaceOnUse" color-interpolation-filters="sRGB">
<feFlood flood-opacity="0" result="BackgroundImageFix"/>
<feBlend mode="normal" in="SourceGraphic" in2="BackgroundImageFix" result="shape"/>
<feGaussianBlur stdDeviation="150.71" result="effect1_foregroundBlur_117_10063"/>
</filter>
<filter id="filter7_f_117_10063" x="364.192" y="487.194" width="395.613" height="395.613" filterUnits="userSpaceOnUse" color-interpolation-filters="sRGB">
<feFlood flood-opacity="0" result="BackgroundImageFix"/>
<feBlend mode="normal" in="SourceGraphic" in2="BackgroundImageFix" result="shape"/>
<feGaussianBlur stdDeviation="75.3548" result="effect1_foregroundBlur_117_10063"/>
</filter>
<filter id="filter8_f_117_10063" x="590.516" y="-93.4839" width="1638.97" height="1638.97" filterUnits="userSpaceOnUse" color-interpolation-filters="sRGB">
<feFlood flood-opacity="0" result="BackgroundImageFix"/>
<feBlend mode="normal" in="SourceGraphic" in2="BackgroundImageFix" result="shape"/>
<feGaussianBlur stdDeviation="263.742" result="effect1_foregroundBlur_117_10063"/>
</filter>
<filter id="filter9_f_117_10063" x="1035.58" y="304.581" width="842.839" height="842.839" filterUnits="userSpaceOnUse" color-interpolation-filters="sRGB">
<feFlood flood-opacity="0" result="BackgroundImageFix"/>
<feBlend mode="normal" in="SourceGraphic" in2="BackgroundImageFix" result="shape"/>
<feGaussianBlur stdDeviation="150.71" result="effect1_foregroundBlur_117_10063"/>
</filter>
<filter id="filter10_f_117_10063" x="1212.2" y="528.193" width="395.613" height="395.613" filterUnits="userSpaceOnUse" color-interpolation-filters="sRGB">
<feFlood flood-opacity="0" result="BackgroundImageFix"/>
<feBlend mode="normal" in="SourceGraphic" in2="BackgroundImageFix" result="shape"/>
<feGaussianBlur stdDeviation="75.3548" result="effect1_foregroundBlur_117_10063"/>
</filter>
<radialGradient id="paint0_radial_117_10063" cx="0" cy="0" r="1" gradientUnits="userSpaceOnUse" gradientTransform="translate(984.502 1382.35) scale(997.314)">
<stop offset="0.109066" stop-color="#8C42FF"/>
<stop offset="0.999357" stop-color="#8C42FF" stop-opacity="0.08"/>
</radialGradient>
<linearGradient id="paint1_linear_117_10063" x1="1942.03" y1="1382.35" x2="0" y2="1382.35" gradientUnits="userSpaceOnUse">
<stop stop-color="#6F00FF" stop-opacity="0"/>
<stop offset="0.489583" stop-color="#BA85FF"/>
<stop offset="1" stop-color="#6F00FF" stop-opacity="0"/>
</linearGradient>
<radialGradient id="paint2_radial_117_10063" cx="0" cy="0" r="1" gradientUnits="userSpaceOnUse" gradientTransform="translate(960 1284) rotate(89.9999) scale(186 1373.54)">
<stop stop-color="#D9D9D9"/>
<stop offset="1" stop-color="#D9D9D9" stop-opacity="0"/>
</radialGradient>
<clipPath id="clip0_117_10063">
<rect width="1920" height="1382" fill="white"/>
</clipPath>
</defs>
</svg>
