<svg width="154" height="53" viewBox="0 0 154 53" fill="none" xmlns="http://www.w3.org/2000/svg">
<g clip-path="url(#clip0_117_11397)">
<path d="M45.4243 6.93213L47.3705 12.9803H52.3695V27.9984H59.169V12.9803H66.2123V6.93213H45.4243Z" fill="#6F00FF"/>
<path d="M67.9575 6.93213H81.7415C85.534 6.93213 88.8143 9.70168 88.8143 14.3062V14.8774C88.7832 19.4819 85.534 22.1303 81.712 22.1303H74.7897V27.9984H67.9575V6.93213ZM80.4778 16.4128C81.4714 16.4128 81.9821 15.6909 82.0132 14.6974V14.4273C82.0132 13.4042 81.4714 12.6808 80.4778 12.6808H74.7897V16.4128H80.4778Z" fill="#6F00FF"/>
<path d="M90.7686 6.93213H97.7808V22.0714H108.375V28.0001H90.7686V6.93213Z" fill="#6F00FF"/>
<path d="M110.028 13.7349C110.028 9.79169 113.007 6.63257 117.854 6.63257H123.09C127.906 6.63257 130.885 9.79333 130.885 13.7054V28.0017H124.083V22.916H116.86V28.0017H110.028V13.7365V13.7349ZM124.083 17.2263V14.6073C124.083 13.3437 123.331 12.8019 122.278 12.8019H118.666C117.613 12.8019 116.86 13.3437 116.86 14.6073V17.2263H124.083Z" fill="#6F00FF"/>
<path d="M140.121 23.9063L135.155 18.58C133.379 16.804 133.078 15.3603 133.078 13.072V6.93213H139.91V12.8002C139.91 14.8463 140.782 15.6598 142.077 17.0741L143.521 18.3083L145.056 17.0135C146.32 15.6287 147.133 14.8463 147.133 12.8002V6.93213H153.966V13.072C153.966 15.3586 153.695 16.7745 152.009 18.4899L146.922 23.9063V28.0001H140.121V23.9063Z" fill="#6F00FF"/>
<path d="M19.3067 20.6555L20.8568 15.8399V6.93213H14.0557V14.4862H6.83222V6.93213H0V28.0001H6.83222V20.536H14.0557V28.0001H20.8568V22.1958L19.3067 20.6555Z" fill="#6F00FF"/>
<path d="M43.4163 7.69157L40.9414 9.99953L34.5086 0L25.3177 8.57056L21.6396 19.9991L29.6831 28H39.334L47.3775 19.9991L43.418 7.69157H43.4163ZM36.9197 23.9995H32.0942L28.0725 19.9991L30.0514 13.8461L31.2889 15.0001L34.5069 9.99953L39.1016 14.2848L40.9398 19.9991L36.918 23.9995H36.9197Z" fill="#16CCF0"/>
</g>
<path d="M47.74 49H45.9275L48.6892 41H50.8689L53.6267 49H51.8142L49.8103 42.8281H49.7478L47.74 49ZM47.6267 45.8555H51.908V47.1758H47.6267V45.8555ZM55.0296 49V41H60.3265V42.3945H56.721V44.3008H59.9749V45.6953H56.721V49H55.0296ZM63.5956 41V49H61.9042V41H63.5956ZM65.4272 49V41H67.1186V47.6055H70.5483V49H65.4272ZM73.7998 41V49H72.1084V41H73.7998ZM77.0103 49H75.1978L77.9595 41H80.1392L82.897 49H81.0845L79.0806 42.8281H79.0181L77.0103 49ZM76.897 45.8555H81.1783V47.1758H76.897V45.8555ZM87.1359 49H84.2999V41H87.1593C87.964 41 88.6567 41.1602 89.2374 41.4805C89.8181 41.7982 90.2648 42.2552 90.5773 42.8516C90.8924 43.4479 91.0499 44.1615 91.0499 44.9922C91.0499 45.8255 90.8924 46.5417 90.5773 47.1406C90.2648 47.7396 89.8155 48.1992 89.2296 48.5195C88.6463 48.8398 87.9484 49 87.1359 49ZM85.9913 47.5508H87.0655C87.5655 47.5508 87.9861 47.4622 88.3273 47.2852C88.671 47.1055 88.9288 46.8281 89.1007 46.4531C89.2752 46.0755 89.3624 45.5885 89.3624 44.9922C89.3624 44.401 89.2752 43.918 89.1007 43.543C88.9288 43.168 88.6723 42.8919 88.3312 42.7148C87.99 42.5378 87.5695 42.4492 87.0695 42.4492H85.9913V47.5508ZM100.094 45C100.094 45.8724 99.929 46.6146 99.5983 47.2266C99.2702 47.8385 98.8223 48.306 98.2546 48.6289C97.6895 48.9492 97.054 49.1094 96.3483 49.1094C95.6374 49.1094 94.9994 48.9479 94.4343 48.625C93.8692 48.3021 93.4225 47.8346 93.0944 47.2227C92.7663 46.6107 92.6022 45.8698 92.6022 45C92.6022 44.1276 92.7663 43.3854 93.0944 42.7734C93.4225 42.1615 93.8692 41.6953 94.4343 41.375C94.9994 41.0521 95.6374 40.8906 96.3483 40.8906C97.054 40.8906 97.6895 41.0521 98.2546 41.375C98.8223 41.6953 99.2702 42.1615 99.5983 42.7734C99.929 43.3854 100.094 44.1276 100.094 45ZM98.3796 45C98.3796 44.4349 98.2949 43.9583 98.1257 43.5703C97.959 43.1823 97.7233 42.888 97.4186 42.6875C97.1139 42.487 96.7572 42.3867 96.3483 42.3867C95.9395 42.3867 95.5827 42.487 95.278 42.6875C94.9733 42.888 94.7363 43.1823 94.5671 43.5703C94.4004 43.9583 94.3171 44.4349 94.3171 45C94.3171 45.5651 94.4004 46.0417 94.5671 46.4297C94.7363 46.8177 94.9733 47.112 95.278 47.3125C95.5827 47.513 95.9395 47.6133 96.3483 47.6133C96.7572 47.6133 97.1139 47.513 97.4186 47.3125C97.7233 47.112 97.959 46.8177 98.1257 46.4297C98.2949 46.0417 98.3796 45.5651 98.3796 45ZM106.127 43.3008C106.096 42.9857 105.962 42.7409 105.725 42.5664C105.488 42.3919 105.166 42.3047 104.76 42.3047C104.484 42.3047 104.251 42.3437 104.061 42.4219C103.871 42.4974 103.725 42.6029 103.623 42.7383C103.524 42.8737 103.475 43.0273 103.475 43.1992C103.47 43.3424 103.5 43.4674 103.565 43.5742C103.632 43.681 103.725 43.7734 103.842 43.8516C103.959 43.9271 104.095 43.9935 104.248 44.0508C104.402 44.1055 104.566 44.1523 104.74 44.1914L105.459 44.3633C105.808 44.4414 106.128 44.5456 106.42 44.6758C106.712 44.806 106.964 44.9661 107.178 45.1562C107.392 45.3464 107.557 45.5703 107.674 45.8281C107.794 46.0859 107.855 46.3815 107.858 46.7148C107.855 47.2044 107.73 47.6289 107.483 47.9883C107.238 48.3451 106.884 48.6224 106.42 48.8203C105.959 49.0156 105.403 49.1133 104.752 49.1133C104.106 49.1133 103.544 49.0143 103.065 48.8164C102.588 48.6185 102.216 48.3255 101.948 47.9375C101.682 47.5469 101.543 47.0638 101.53 46.4883H103.166C103.184 46.7565 103.261 46.9805 103.397 47.1602C103.535 47.3372 103.718 47.4714 103.948 47.5625C104.179 47.651 104.441 47.6953 104.733 47.6953C105.019 47.6953 105.268 47.6536 105.479 47.5703C105.692 47.487 105.858 47.3711 105.975 47.2227C106.092 47.0742 106.151 46.9036 106.151 46.7109C106.151 46.5312 106.097 46.3802 105.99 46.2578C105.886 46.1354 105.733 46.0312 105.53 45.9453C105.329 45.8594 105.083 45.7812 104.791 45.7109L103.92 45.4922C103.246 45.3281 102.713 45.0716 102.323 44.7227C101.932 44.3737 101.738 43.9036 101.74 43.3125C101.738 42.8281 101.867 42.4049 102.127 42.043C102.39 41.681 102.751 41.3984 103.209 41.1953C103.668 40.9922 104.188 40.8906 104.772 40.8906C105.365 40.8906 105.884 40.9922 106.326 41.1953C106.772 41.3984 107.118 41.681 107.365 42.043C107.613 42.4049 107.74 42.8242 107.748 43.3008H106.127Z" fill="#16CCF0"/>
<defs>
<clipPath id="clip0_117_11397">
<rect width="153.966" height="28" fill="white"/>
</clipPath>
</defs>
</svg>
