<svg width="245" height="26" viewBox="0 0 245 26" fill="none" xmlns="http://www.w3.org/2000/svg">
<g clip-path="url(#clip0_130_255)">
<path d="M41.5305 6.33789L43.3099 11.8676H47.8804V25.5985H54.0971V11.8676H60.5367V6.33789H41.5305Z" fill="#6F00FF"/>
<path d="M62.1328 6.33789H74.7353C78.2028 6.33789 81.2019 8.87006 81.2019 13.0799V13.6021C81.1734 17.8119 78.2028 20.2334 74.7083 20.2334H68.3794V25.5985H62.1328V6.33789ZM73.5799 15.0059C74.4883 15.0059 74.9553 14.3459 74.9837 13.4375V13.1906C74.9837 12.2553 74.4883 11.5938 73.5799 11.5938H68.3794V15.0059H73.5799Z" fill="#6F00FF"/>
<path d="M82.9883 6.33789H89.3995V20.1795H99.0852V25.6H82.9883V6.33789Z" fill="#6F00FF"/>
<path d="M100.597 12.5575C100.597 8.95231 103.321 6.06396 107.752 6.06396H112.539C116.942 6.06396 119.666 8.95381 119.666 12.5306V25.6014H113.448V20.9517H106.844V25.6014H100.597V12.559V12.5575ZM113.448 15.7496V13.3552C113.448 12.1998 112.759 11.7045 111.797 11.7045H108.494C107.532 11.7045 106.844 12.1998 106.844 13.3552V15.7496H113.448Z" fill="#6F00FF"/>
<path d="M128.111 21.8571L123.57 16.9873C121.947 15.3636 121.671 14.0436 121.671 11.9515V6.33789H127.918V11.703C127.918 13.5737 128.715 14.3175 129.899 15.6105L131.219 16.7389L132.623 15.5551C133.778 14.2891 134.522 13.5737 134.522 11.703V6.33789H140.769V11.9515C140.769 14.0421 140.522 15.3367 138.98 16.905L134.329 21.8571V25.6H128.111V21.8571Z" fill="#6F00FF"/>
<path d="M17.6518 18.885L19.0691 14.4821V6.33789H12.8509V13.2445H6.2466V6.33789H0V25.6H6.2466V18.7757H12.8509V25.6H19.0691V20.2932L17.6518 18.885Z" fill="#6F00FF"/>
<path d="M39.6945 7.03229L37.4318 9.14243L31.5503 0L23.1472 7.83594L19.7844 18.2849L27.1385 25.6H35.9621L43.3162 18.2849L39.696 7.03229H39.6945ZM33.7547 21.9424H29.3429L25.6659 18.2849L27.4752 12.6593L28.6066 13.7144L31.5488 9.14243L35.7496 13.0604L37.4303 18.2849L33.7532 21.9424H33.7547Z" fill="#16CCF0"/>
</g>
<path d="M159.5 10L159.5 22" stroke="#6F00FF"/>
<path d="M180.263 20H178.286L181.298 11.2727H183.676L186.685 20H184.707L182.521 13.267H182.453L180.263 20ZM180.139 16.5696H184.81V18.0099H180.139V16.5696ZM187.975 20V11.2727H193.753V12.794H189.82V14.8736H193.37V16.3949H189.82V20H187.975ZM197.08 11.2727V20H195.235V11.2727H197.08ZM198.838 20V11.2727H200.683V18.4787H204.425V20H198.838ZM207.732 11.2727V20H205.886V11.2727H207.732ZM210.994 20H209.017L212.03 11.2727H214.407L217.416 20H215.439L213.253 13.267H213.184L210.994 20ZM210.87 16.5696H215.541V18.0099H210.87V16.5696ZM221.8 20H218.706V11.2727H221.826C222.703 11.2727 223.459 11.4474 224.093 11.7969C224.726 12.1435 225.213 12.642 225.554 13.2926C225.898 13.9432 226.07 14.7216 226.07 15.6278C226.07 16.5369 225.898 17.3182 225.554 17.9716C225.213 18.625 224.723 19.1264 224.084 19.4759C223.448 19.8253 222.686 20 221.8 20ZM220.552 18.419H221.723C222.269 18.419 222.728 18.3224 223.1 18.1293C223.475 17.9332 223.756 17.6307 223.944 17.2216C224.134 16.8097 224.229 16.2784 224.229 15.6278C224.229 14.983 224.134 14.456 223.944 14.0469C223.756 13.6378 223.476 13.3366 223.104 13.1435C222.732 12.9503 222.273 12.8537 221.728 12.8537H220.552V18.419ZM235.697 15.6364C235.697 16.5881 235.516 17.3977 235.155 18.0653C234.798 18.733 234.309 19.2429 233.69 19.5952C233.073 19.9446 232.38 20.1193 231.61 20.1193C230.834 20.1193 230.138 19.9432 229.522 19.5909C228.905 19.2386 228.418 18.7287 228.06 18.0611C227.702 17.3935 227.523 16.5852 227.523 15.6364C227.523 14.6847 227.702 13.875 228.06 13.2074C228.418 12.5398 228.905 12.0312 229.522 11.6818C230.138 11.3295 230.834 11.1534 231.61 11.1534C232.38 11.1534 233.073 11.3295 233.69 11.6818C234.309 12.0312 234.798 12.5398 235.155 13.2074C235.516 13.875 235.697 14.6847 235.697 15.6364ZM233.826 15.6364C233.826 15.0199 233.734 14.5 233.549 14.0767C233.367 13.6534 233.11 13.3324 232.778 13.1136C232.445 12.8949 232.056 12.7855 231.61 12.7855C231.164 12.7855 230.775 12.8949 230.442 13.1136C230.11 13.3324 229.852 13.6534 229.667 14.0767C229.485 14.5 229.394 15.0199 229.394 15.6364C229.394 16.2528 229.485 16.7727 229.667 17.196C229.852 17.6193 230.11 17.9403 230.442 18.1591C230.775 18.3778 231.164 18.4872 231.61 18.4872C232.056 18.4872 232.445 18.3778 232.778 18.1591C233.11 17.9403 233.367 17.6193 233.549 17.196C233.734 16.7727 233.826 16.2528 233.826 15.6364ZM242.038 13.7827C242.004 13.4389 241.857 13.1719 241.599 12.9815C241.34 12.7912 240.99 12.696 240.546 12.696C240.245 12.696 239.991 12.7386 239.784 12.8239C239.576 12.9062 239.417 13.0213 239.306 13.169C239.198 13.3168 239.144 13.4844 239.144 13.6719C239.139 13.8281 239.171 13.9645 239.242 14.081C239.316 14.1974 239.417 14.2983 239.545 14.3835C239.673 14.4659 239.821 14.5384 239.988 14.6009C240.156 14.6605 240.335 14.7116 240.525 14.7543L241.309 14.9418C241.69 15.027 242.039 15.1406 242.357 15.2827C242.676 15.4247 242.951 15.5994 243.184 15.8068C243.417 16.0142 243.598 16.2585 243.725 16.5398C243.856 16.821 243.923 17.1435 243.926 17.5071C243.923 18.0412 243.786 18.5043 243.517 18.8963C243.25 19.2855 242.863 19.5881 242.357 19.804C241.855 20.017 241.248 20.1236 240.538 20.1236C239.833 20.1236 239.22 20.0156 238.697 19.7997C238.177 19.5838 237.771 19.2642 237.478 18.8409C237.188 18.4148 237.036 17.8878 237.022 17.2599H238.808C238.828 17.5526 238.911 17.7969 239.059 17.9929C239.21 18.1861 239.41 18.3324 239.66 18.4318C239.913 18.5284 240.198 18.5767 240.517 18.5767C240.829 18.5767 241.1 18.5312 241.331 18.4403C241.563 18.3494 241.744 18.223 241.872 18.0611C242 17.8991 242.063 17.7131 242.063 17.5028C242.063 17.3068 242.005 17.142 241.889 17.0085C241.775 16.875 241.607 16.7614 241.386 16.6676C241.167 16.5739 240.899 16.4886 240.581 16.4119L239.63 16.1733C238.894 15.9943 238.313 15.7145 237.887 15.3338C237.461 14.9531 237.25 14.4403 237.252 13.7955C237.25 13.267 237.39 12.8054 237.674 12.4105C237.961 12.0156 238.355 11.7074 238.855 11.4858C239.355 11.2642 239.923 11.1534 240.559 11.1534C241.207 11.1534 241.772 11.2642 242.255 11.4858C242.741 11.7074 243.119 12.0156 243.389 12.4105C243.659 12.8054 243.798 13.2628 243.806 13.7827H242.038Z" fill="#16CCF0"/>
<defs>
<clipPath id="clip0_130_255">
<rect width="140.769" height="25.6" fill="white"/>
</clipPath>
</defs>
</svg>
