<svg width="73" height="75" fill="none" xmlns="http://www.w3.org/2000/svg"><path d="M3.397 0h.772v20.551h-.772V0Zm1.544 0h.771v20.551h-.771V0Zm4.632 0h.772v20.551h-.772V0Zm15.018 0h.772v20.551h-.772V0Zm5.021 0h.772v20.551h-.772V0Zm4.869 0h.771v20.551h-.771V0Zm1.254 0h.772v20.551h-.772V0Zm1.257 0h.771v20.551h-.771V0Zm1.412 0h.771v20.551h-.771V0Zm1.412 0h.771v20.551h-.771V0Zm3.925 0h.771v20.551h-.771V0Zm9.732 0h.771v20.551h-.771V0Zm10.151 0h.772v20.551h-.772V0Zm2.777 0h.771v20.551h-.771V0Zm2.006 0h.772v20.551h-.772V0Zm1.236 0h.771v20.551h-.771V0ZM14.668 0h.771v20.551h-.771V0Zm-7.72 0h1.388v20.551H6.947V0Zm9.168 0h1.389v20.551h-1.39V0Zm6.438 0h1.389v20.551h-1.39V0Zm3.295 0h1.39v20.551h-1.39V0Zm5.18 0h1.39v20.551h-1.39V0Zm14.768 0h2.16v20.551h-2.16V0Zm2.822 0h1.699v20.551h-1.699V0Zm2.978 0h1.39v20.551h-1.39V0Zm3.938 0h2.317v20.551h-2.317V0Zm4.536 0h2.316v20.551h-2.316V0ZM11.116 0h2.779v20.551h-2.779V0Zm7.201 0h2.161v20.551h-2.16V0ZM4.397 38.799V27.036h4.4a5.43 5.43 0 0 1 2.156.356c.527.226.971.61 1.271 1.1.298.463.458 1.002.46 1.553 0 .502-.14.994-.407 1.42-.3.468-.728.841-1.232 1.074a3.062 3.062 0 0 1 1.638 1.067c.385.512.586 1.14.572 1.781a3.444 3.444 0 0 1-.348 1.537 2.972 2.972 0 0 1-.863 1.096 3.584 3.584 0 0 1-1.284.581 7.787 7.787 0 0 1-1.89.198H4.397Zm1.553-6.82h2.536c.495.02.991-.026 1.474-.136.354-.09.668-.296.892-.585.208-.301.313-.662.3-1.028a1.896 1.896 0 0 0-.28-1.03 1.417 1.417 0 0 0-.794-.611 6.655 6.655 0 0 0-1.783-.165H5.95v3.555Zm0 5.433h2.92c.353.009.706-.01 1.056-.056.317-.052.62-.163.896-.329.252-.163.456-.39.592-.657.158-.304.238-.643.232-.986a1.958 1.958 0 0 0-.336-1.15 1.773 1.773 0 0 0-.932-.683 5.761 5.761 0 0 0-1.715-.197H5.95v4.058Zm9.572-4.342a6.405 6.405 0 0 1 1.568-4.587 5.332 5.332 0 0 1 4.047-1.656 5.602 5.602 0 0 1 2.928.779 5.076 5.076 0 0 1 1.987 2.17 7.07 7.07 0 0 1 .683 3.158 6.95 6.95 0 0 1-.72 3.2 4.923 4.923 0 0 1-2.039 2.137 5.813 5.813 0 0 1-2.847.727 5.532 5.532 0 0 1-2.958-.8 5.157 5.157 0 0 1-1.977-2.193 6.656 6.656 0 0 1-.672-2.935Zm1.6.025a4.722 4.722 0 0 0 1.147 3.35 3.748 3.748 0 0 0 2.86 1.225 3.732 3.732 0 0 0 2.873-1.238 5.006 5.006 0 0 0 1.132-3.507 6.044 6.044 0 0 0-.476-2.507 3.727 3.727 0 0 0-1.416-1.662 3.828 3.828 0 0 0-2.092-.59 3.955 3.955 0 0 0-2.835 1.136 5.077 5.077 0 0 0-1.193 3.791v.002Zm12.157 5.704V27.036h1.551V37.41h5.774V38.8H29.28Zm9.812 0V27.036h8.479v1.388h-6.928v3.602h6.487v1.38h-6.487v4.004h7.2V38.8H39.09Zm14.484 0V28.424h-3.864v-1.388h9.294v1.388h-3.879V38.8h-1.55Zm6.86-5.729a6.405 6.405 0 0 1 1.572-4.587 5.331 5.331 0 0 1 4.047-1.656 5.601 5.601 0 0 1 2.927.779 5.076 5.076 0 0 1 1.988 2.17c.468.986.702 2.067.683 3.158a6.948 6.948 0 0 1-.72 3.2 4.923 4.923 0 0 1-2.046 2.139 5.813 5.813 0 0 1-2.846.726 5.532 5.532 0 0 1-2.96-.802 5.158 5.158 0 0 1-1.973-2.192 6.656 6.656 0 0 1-.672-2.935Zm1.6.025a4.723 4.723 0 0 0 1.148 3.35 3.75 3.75 0 0 0 2.86 1.225 3.732 3.732 0 0 0 2.883-1.236 5.006 5.006 0 0 0 1.132-3.507 6.042 6.042 0 0 0-.492-2.508 3.727 3.727 0 0 0-1.415-1.661 3.83 3.83 0 0 0-2.092-.59 3.956 3.956 0 0 0-2.835 1.136 5.077 5.077 0 0 0-1.19 3.789l.002.002Z" fill="#fff"/><mask id="a" style="mask-type:luminance" maskUnits="userSpaceOnUse" x="0" y="49" width="73" height="26"><path d="M72.076 49H0v25.391h72.076V49Z" fill="#fff"/></mask><g mask="url(#a)" fill="#fff"><path fill-rule="evenodd" clip-rule="evenodd" d="M34.534 53.744c-2.446 0-4.429 1.971-4.429 4.403v14.562a.45.45 0 0 1-.45.448.45.45 0 0 1-.452-.448V58.147c0-2.927 2.387-5.3 5.332-5.3l4.326.007c2.936.005 5.314 2.373 5.314 5.292v3.1c0 2.927-2.388 5.3-5.332 5.3H32.73a.45.45 0 0 1-.451-.449.45.45 0 0 1 .451-.448h6.112c2.446 0 4.43-1.972 4.43-4.403v-3.1c0-2.424-1.975-4.39-4.414-4.395l-4.325-.007ZM44.481 53.294a.45.45 0 0 1 .451-.448h1.876a2.447 2.447 0 0 1 2.454 2.44v10.877a.45.45 0 0 1-.45.448.45.45 0 0 1-.452-.448V55.285c0-.852-.695-1.542-1.552-1.542h-1.876a.45.45 0 0 1-.451-.449Z"/><path d="m48.411 51.609-.85-.846a.535.535 0 0 1 0-.76l.85-.845a.544.544 0 0 1 .765 0l.85.845c.212.21.212.55 0 .76l-.85.846a.543.543 0 0 1-.765 0Z"/><path fill-rule="evenodd" clip-rule="evenodd" d="M51.96 53.284a.45.45 0 0 1 .45-.449h1.861c1.077 0 2.11.426 2.871 1.182l4.352 4.327a.997.997 0 0 0 1.404 0l4.336-4.31a4.073 4.073 0 0 1 2.87-1.183h1.514a.45.45 0 1 1 0 .897h-1.513c-.838 0-1.64.33-2.233.92l-4.336 4.31c-.74.735-1.94.735-2.68 0l-4.352-4.326a3.167 3.167 0 0 0-2.233-.92h-1.86a.45.45 0 0 1-.452-.448Z"/><path fill-rule="evenodd" clip-rule="evenodd" d="M62.898 61.008a.996.996 0 0 0-1.404 0l-4.352 4.326a4.073 4.073 0 0 1-2.87 1.182H52.41a.45.45 0 0 1-.452-.449.45.45 0 0 1 .452-.448h1.86c.838 0 1.641-.33 2.233-.92l4.352-4.325a1.903 1.903 0 0 1 2.68 0l4.336 4.31c.592.588 1.395.92 2.233.92h1.513c.249 0 .45.2.45.448a.45.45 0 0 1-.45.448h-1.513a4.072 4.072 0 0 1-2.871-1.182l-4.336-4.31Z"/><path d="M18.562 68.831a3.485 3.485 0 0 1-2.473-1.017l-3.57-3.55a.682.682 0 0 0-.938 0l-3.583 3.563a3.486 3.486 0 0 1-2.472 1.017h-.704l4.522 4.495a3.631 3.631 0 0 0 5.114 0l4.534-4.508h-.43ZM5.526 56.279c.933 0 1.812.361 2.472 1.017l3.583 3.563c.258.256.68.257.938 0l3.57-3.55a3.485 3.485 0 0 1 2.473-1.017h.43l-4.535-4.508a3.631 3.631 0 0 0-5.113 0L4.822 56.28h.704Z"/><path d="m22.743 60.02-2.74-2.724a.525.525 0 0 1-.195.039h-1.246a2.47 2.47 0 0 0-1.73.712l-3.57 3.55a1.714 1.714 0 0 1-1.211.497c-.439 0-.878-.166-1.212-.498l-3.583-3.561a2.47 2.47 0 0 0-1.73-.713H3.994a.524.524 0 0 1-.184-.037L1.06 60.02a3.58 3.58 0 0 0 0 5.083l2.75 2.735a.525.525 0 0 1 .184-.037h1.532a2.47 2.47 0 0 0 1.73-.713l3.583-3.561c.648-.644 1.777-.644 2.424 0l3.57 3.548a2.47 2.47 0 0 0 1.73.713h1.245c.07 0 .134.015.195.039l2.74-2.724a3.58 3.58 0 0 0 0-5.083Z"/></g></svg>