<svg width="14" height="14" fill="none" xmlns="http://www.w3.org/2000/svg"><path d="m7 13.588-1.012-.916c-.902-.82-1.722-1.577-2.46-2.27a21.826 21.826 0 0 1-1.887-2.01A9.265 9.265 0 0 1 .424 6.507 4.507 4.507 0 0 1 0 4.592c0-.538.1-1.04.3-1.504.201-.474.475-.884.821-1.23a3.87 3.87 0 0 1 1.217-.82C2.803.845 3.308.75 3.855.75c.602 0 1.18.132 1.737.396A4.057 4.057 0 0 1 7 2.2a4.057 4.057 0 0 1 1.408-1.053A3.998 3.998 0 0 1 10.145.75c.546 0 1.052.096 1.517.287.465.2.87.474 1.217.82.346.347.62.757.82 1.23.2.466.301.967.301 1.505 0 .665-.141 1.303-.424 1.914a9.268 9.268 0 0 1-1.217 1.887 21.845 21.845 0 0 1-1.886 2.01c-.739.692-1.559 1.449-2.461 2.269L7 13.588Z" fill="#16CCF0"/></svg>