<svg width="14" height="15" fill="none" xmlns="http://www.w3.org/2000/svg"><path d="M7 1.434c-.939 0-1.554.004-1.846.013-.282 0-.61.01-.984.028-.337.009-.606.04-.807.095-.2.046-.364.091-.492.137-.164.064-.31.137-.437.219a2.72 2.72 0 0 0-.67.683c-.082.119-.155.26-.22.424a6.94 6.94 0 0 0-.15.492c-.045.2-.072.47-.081.807-.019.374-.032.706-.042.998v3.678c.01.282.023.61.042.984.009.337.036.606.082.807.054.2.104.364.15.492.064.164.137.31.219.438a2.72 2.72 0 0 0 .683.67c.128.082.27.154.424.218.128.046.292.096.492.15.2.046.47.078.807.096l.998.028c.292.009.902.013 1.832.013.939 0 1.55-.004 1.832-.013.292-.01.624-.019.998-.028a5.01 5.01 0 0 0 .807-.095c.2-.055.364-.105.492-.15.164-.065.305-.138.424-.22.127-.082.255-.182.382-.3a3.35 3.35 0 0 0 .301-.37c.082-.127.155-.273.22-.437.045-.128.09-.292.136-.492.054-.2.09-.47.11-.807.008-.374.017-.706.027-.998.009-.292.013-.902.013-1.832 0-.939-.004-1.55-.014-1.832-.009-.292-.018-.624-.027-.998a4.009 4.009 0 0 0-.11-.807 4.414 4.414 0 0 0-.136-.492 2.042 2.042 0 0 0-.219-.424 2.755 2.755 0 0 0-.3-.382 2.758 2.758 0 0 0-.383-.301 2.045 2.045 0 0 0-.424-.219 4.417 4.417 0 0 0-.492-.137c-.2-.054-.47-.086-.807-.095a20.72 20.72 0 0 0-.998-.028c-.283-.009-.893-.013-1.832-.013ZM7 .162c.948 0 1.572.005 1.873.014.3.009.638.023 1.012.04.373.01.693.046.957.11.273.055.52.123.738.205.237.091.456.2.656.328s.397.287.588.479c.192.2.351.4.479.601.127.201.237.415.328.643.082.228.15.479.205.752.064.264.1.583.11.957.018.365.027.697.027.998.009.3.013.93.013 1.887 0 .948-.004 1.572-.013 1.873 0 .3-.01.638-.028 1.011-.009.365-.045.684-.11.958-.054.264-.122.51-.204.738a3.47 3.47 0 0 1-.807 1.23c-.2.2-.4.365-.601.493a3.24 3.24 0 0 1-.643.314 3.924 3.924 0 0 1-.738.219 6.32 6.32 0 0 1-.957.11c-.374.017-.711.026-1.012.026-.3.01-.925.014-1.873.014s-1.572-.004-1.873-.014c-.3 0-.638-.009-1.012-.027a6.67 6.67 0 0 1-.97-.11 3.982 3.982 0 0 1-.725-.218 3.119 3.119 0 0 1-.656-.314 3.18 3.18 0 0 1-.588-.493 3.47 3.47 0 0 1-.807-1.23 4.37 4.37 0 0 1-.219-.738 6.676 6.676 0 0 1-.109-.971A57.751 57.751 0 0 1 0 9.049v-3.76c.01-.3.023-.638.041-1.012.018-.373.055-.692.11-.957.054-.273.127-.52.218-.738.091-.228.2-.442.328-.643.128-.2.287-.4.479-.601.191-.192.387-.351.588-.479.2-.127.419-.237.656-.328.219-.082.46-.15.725-.205.273-.064.597-.105.97-.123L5.127.176c.3-.01.925-.014 1.873-.014Zm0 3.404c.492 0 .957.096 1.395.288.437.19.82.45 1.148.779.328.319.583.697.766 1.135.191.437.287.902.287 1.394 0 .501-.096.97-.287 1.408-.183.438-.438.82-.766 1.149-.328.319-.711.574-1.148.765A3.589 3.589 0 0 1 7 10.758c-.492 0-.957-.091-1.395-.274a3.836 3.836 0 0 1-1.148-.765 3.523 3.523 0 0 1-.766-1.149 3.474 3.474 0 0 1-.287-1.408c0-.492.096-.957.287-1.394.183-.438.438-.816.766-1.135.328-.328.711-.588 1.148-.78A3.441 3.441 0 0 1 7 3.567ZM7 9.5c.647 0 1.199-.228 1.654-.684a2.253 2.253 0 0 0 .684-1.654c0-.638-.228-1.185-.684-1.64A2.253 2.253 0 0 0 7 4.837c-.647 0-1.199.228-1.654.683a2.238 2.238 0 0 0-.684 1.641c0 .647.228 1.199.684 1.654A2.253 2.253 0 0 0 7 9.5Zm4.58-6.07a.803.803 0 0 0-.246-.588.818.818 0 0 0-.602-.246.803.803 0 0 0-.587.246.802.802 0 0 0-.247.588c0 .228.082.424.247.588.164.164.36.246.587.246a.818.818 0 0 0 .602-.246.803.803 0 0 0 .246-.588Z" fill="#16CCF0"/></svg>