<svg width="14" height="14" fill="none" xmlns="http://www.w3.org/2000/svg"><path d="M1.395.504c.109-.01.246-.01.41 0a1.427 1.427 0 0 1 1.203.574c.219.264.342.565.369.902.01.183-.014.356-.068.52a1.323 1.323 0 0 1-.26.451 1.669 1.669 0 0 1-.711.479c-.274.1-.574.132-.902.095a1.69 1.69 0 0 1-.807-.26 1.427 1.427 0 0 1-.506-.6 2.193 2.193 0 0 1-.096-.302A1.968 1.968 0 0 1 0 1.994c0-.118.005-.205.014-.26.009-.054.022-.118.04-.191.037-.11.078-.205.124-.287.054-.082.118-.164.191-.246C.488.873.638.764.82.682c.183-.092.374-.15.575-.178Zm8.79 4.115c.174-.009.292-.014.356-.014.073 0 .187.005.342.014.428.037.816.132 1.162.287.346.155.66.37.943.643.301.3.529.665.684 1.094.164.419.264.925.3 1.517.01.091.014.433.014 1.026.01.583.014 1.244.014 1.982v2.666h-3.021l-.014-2.666c0-1.313-.005-2.092-.014-2.338 0-.246-.009-.424-.027-.533-.11-.483-.287-.83-.533-1.04-.237-.209-.565-.305-.985-.286-.228.009-.414.045-.56.11-.137.054-.278.15-.424.286-.11.11-.2.21-.274.301a1.342 1.342 0 0 0-.191.342l-.096.191-.013 2.817v2.816h-2.98v-9.01h2.98v.63c0 .2-.005.36-.014.478 0 .109-.005.164-.014.164-.009.009-.013.022-.013.04 0 .01.004.014.013.014l.014-.013a.16.16 0 0 0 .027-.041c.046-.091.178-.256.397-.492.228-.247.415-.424.56-.534.164-.127.36-.228.588-.3.228-.073.488-.124.78-.15ZM.137 9.322V4.824h3.021v9.01H.15L.137 9.322Z" fill="#16CCF0"/></svg>