<svg width="14" height="10" fill="none" xmlns="http://www.w3.org/2000/svg"><path d="M3.355 7.855c0 .352.114.665.34.938.235.273.516.441.844.504l-.516.176a.622.622 0 0 1-.128.035h-.118a.834.834 0 0 1-.48-.153.787.787 0 0 1-.293-.398L1.035 2.898a.823.823 0 0 1 .047-.609.784.784 0 0 1 .48-.41L3.38 1.28c0 .04-.004.074-.012.106a.436.436 0 0 0-.012.105v6.363Zm1.325-.949c-.11.36-.09.707.058 1.043.157.328.403.574.739.739h-.645a.8.8 0 0 1-.586-.247.847.847 0 0 1-.234-.586V1.492a.78.78 0 0 1 .234-.574.8.8 0 0 1 .586-.246h1.887a.642.642 0 0 1-.035.082.458.458 0 0 1-.036.094L4.68 6.906Zm7.758-5.027c.21.07.367.207.468.41a.789.789 0 0 1 .059.61l-1.969 6.058a.767.767 0 0 1-.305.398.782.782 0 0 1-.468.153h-.13a.667.667 0 0 1-.116-.035l-4.16-1.348a.79.79 0 0 1-.47-.398.784.784 0 0 1-.046-.622L7.27 1.047a.785.785 0 0 1 .293-.41.834.834 0 0 1 .48-.153c.039 0 .078.004.117.012.047.008.09.02.13.035l4.148 1.348Zm-3.88 4.734c.743-.195 1.301-.433 1.676-.715.375-.273.621-.55.739-.832.125-.28.152-.539.082-.773-.07-.234-.18-.402-.328-.504-.25-.18-.489-.242-.715-.187-.227.046-.422.16-.586.34a1.577 1.577 0 0 0-.293-.61c-.14-.187-.363-.281-.668-.281-.18 0-.367.074-.563.222-.203.149-.336.372-.398.668-.063.297-.027.668.105 1.114.141.445.457.965.95 1.558Z" fill="#fff"/></svg>