<svg width="104" height="36" fill="none" xmlns="http://www.w3.org/2000/svg"><g clip-path="url(#a)"><path fill-rule="evenodd" clip-rule="evenodd" d="M13.186 0C7.134 0 2.229 4.852 2.229 10.837V23.51h21.914V10.837C24.143 4.852 19.237 0 13.186 0Zm0 3.306c-4 0-7.243 3.207-7.243 7.163v8.633h14.486v-8.633c0-3.956-3.243-7.163-7.243-7.163Z" fill="#D9D9D9"/><path d="M0 15.429c0-.609.499-1.102 1.114-1.102h23.772c.615 0 1.114.493 1.114 1.102v7.714C26 30.243 20.18 36 13 36S0 30.244 0 23.143v-7.714Z" fill="#16CCF0"/><path d="m10.956 28.229-4.441-4.384a.668.668 0 0 1 0-.954l.966-.954a.69.69 0 0 1 .966 0l2.992 2.953 6.408-6.325a.69.69 0 0 1 .966 0l.966.954a.668.668 0 0 1 0 .953l-7.857 7.757a.69.69 0 0 1-.966 0ZM34.677 19.798c-.939 0-1.85-.123-2.732-.37-.87-.257-1.572-.587-2.103-.99l.933-2.047c.509.37 1.114.666 1.815.89a6.886 6.886 0 0 0 2.104.335c.78 0 1.357-.111 1.73-.335.374-.235.56-.543.56-.923a.84.84 0 0 0-.339-.688c-.215-.19-.498-.341-.848-.453-.34-.112-.803-.235-1.391-.37-.905-.212-1.646-.424-2.223-.637a3.676 3.676 0 0 1-1.493-1.023c-.407-.47-.61-1.097-.61-1.88 0-.682.186-1.297.56-1.845.372-.56.932-1.002 1.679-1.326.758-.324 1.68-.487 2.765-.487.758 0 1.499.09 2.223.269a6.607 6.607 0 0 1 1.9.772l-.848 2.064c-1.098-.616-2.195-.923-3.292-.923-.769 0-1.34.123-1.713.369-.362.246-.543.57-.543.973s.209.705.627.906c.43.19 1.08.38 1.952.57.904.213 1.645.426 2.222.638a3.615 3.615 0 0 1 1.476 1.007c.418.459.628 1.08.628 1.863 0 .67-.193 1.286-.577 1.845-.373.548-.939.985-1.697 1.31-.757.323-1.68.486-2.765.486ZM50.79 17.415v2.182h-9.196V7.85h8.975v2.181h-6.243v2.55h5.514v2.115h-5.514v2.718h6.464ZM60.968 13.539h2.51v4.765a7.209 7.209 0 0 1-2.238 1.108 8.785 8.785 0 0 1-2.563.386c-1.232 0-2.34-.258-3.325-.772a5.986 5.986 0 0 1-2.324-2.165c-.554-.928-.831-1.974-.831-3.138 0-1.163.277-2.203.831-3.12a5.801 5.801 0 0 1 2.341-2.165c.996-.526 2.115-.789 3.36-.789 1.04 0 1.985.174 2.833.52.848.347 1.56.85 2.138 1.51l-1.765 1.611c-.848-.883-1.872-1.325-3.07-1.325-.758 0-1.431.156-2.02.47a3.394 3.394 0 0 0-1.374 1.325c-.328.57-.492 1.225-.492 1.963 0 .728.164 1.376.492 1.947a3.54 3.54 0 0 0 1.358 1.342c.587.314 1.255.47 2.001.47.792 0 1.505-.168 2.138-.503v-3.44ZM71.309 19.798c-1.697 0-3.02-.464-3.97-1.393-.94-.928-1.408-2.254-1.408-3.976V7.85h2.748v6.477c0 2.103.882 3.154 2.647 3.154.86 0 1.515-.251 1.968-.755.452-.514.678-1.314.678-2.4V7.852h2.715v6.578c0 1.722-.475 3.048-1.425 3.976-.939.929-2.257 1.393-3.953 1.393ZM86.97 19.597l-2.291-3.272H82.15v3.272h-2.749V7.85h5.14c1.053 0 1.963.173 2.732.52.78.347 1.38.84 1.799 1.477.419.637.628 1.393.628 2.265 0 .873-.215 1.628-.645 2.265-.418.627-1.018 1.108-1.798 1.443l2.663 3.776H86.97Zm-.052-7.484c0-.66-.215-1.163-.645-1.51-.43-.358-1.057-.537-1.883-.537h-2.24v4.094h2.24c.826 0 1.454-.179 1.883-.537.43-.358.645-.861.645-1.51ZM97.63 19.798c-1.233 0-2.347-.263-3.343-.789a5.99 5.99 0 0 1-2.324-2.165c-.554-.928-.831-1.968-.831-3.12 0-1.153.277-2.187.831-3.105a5.95 5.95 0 0 1 2.325-2.181c.995-.526 2.109-.789 3.342-.789s2.341.263 3.325.789a5.944 5.944 0 0 1 2.324 2.181c.566.918.849 1.952.849 3.104 0 1.153-.283 2.193-.849 3.121a5.984 5.984 0 0 1-2.324 2.165c-.984.526-2.092.789-3.325.789Zm0-2.316c.7 0 1.335-.156 1.9-.47a3.447 3.447 0 0 0 1.323-1.342c.328-.57.492-1.22.492-1.947 0-.727-.164-1.375-.492-1.946a3.333 3.333 0 0 0-1.323-1.325 3.75 3.75 0 0 0-1.9-.487c-.702 0-1.335.162-1.9.486a3.45 3.45 0 0 0-1.34 1.326c-.318.57-.476 1.22-.476 1.947 0 .727.158 1.375.475 1.946a3.57 3.57 0 0 0 1.34 1.342c.566.314 1.2.47 1.9.47Z" fill="#fff"/><path d="M102.886 22.775H30.829c-.616 0-1.115.494-1.115 1.102v8.082c0 .609.5 1.102 1.115 1.102h72.057c.615 0 1.114-.493 1.114-1.102v-8.082c0-.608-.499-1.102-1.114-1.102Z" fill="#16CCF0"/><path d="M36.675 29.876a2.87 2.87 0 0 1-1.282-.282 2.29 2.29 0 0 1-.898-.79 2.09 2.09 0 0 1-.324-1.146c0-.425.108-.805.324-1.14.22-.339.52-.602.898-.79a2.834 2.834 0 0 1 1.288-.288c.401 0 .762.065 1.084.196.325.13.598.318.819.563l-.688.589a1.525 1.525 0 0 0-1.162-.503c-.286 0-.541.06-.766.178-.225.114-.4.276-.528.484a1.368 1.368 0 0 0-.185.71c0 .266.061.503.185.712.127.208.303.371.528.49.224.114.48.171.766.171.462 0 .85-.17 1.162-.508l.688.588c-.22.25-.494.44-.82.57-.325.13-.689.196-1.09.196ZM42.886 29.006v.797h-3.58v-4.29H42.8v.797h-2.43v.931h2.146v.772H40.37v.993h2.517ZM46.683 29.803l-.892-1.195h-.984v1.195h-1.07v-4.29h2.002c.41 0 .764.063 1.063.19.304.127.537.306.7.54.163.232.245.508.245.827 0 .318-.084.594-.251.827a1.54 1.54 0 0 1-.7.527l1.037 1.379h-1.15Zm-.02-2.733c0-.242-.083-.425-.25-.552-.168-.13-.412-.196-.734-.196h-.872v1.495h.872c.322 0 .566-.065.734-.196.167-.13.25-.314.25-.551ZM49.488 26.322h-1.48v-.809h4.03v.809h-1.48v3.48h-1.07v-3.48ZM52.613 25.513h1.07v4.29h-1.07v-4.29ZM55.85 26.31v1.133h2.14v.797h-2.14v1.563h-1.07v-4.29h3.494v.797H55.85ZM58.998 25.513h1.07v4.29h-1.07v-4.29ZM63.379 29.876a2.87 2.87 0 0 1-1.282-.282 2.29 2.29 0 0 1-.898-.79 2.089 2.089 0 0 1-.324-1.146c0-.425.108-.805.324-1.14.22-.339.52-.602.898-.79a2.834 2.834 0 0 1 1.288-.288c.4 0 .762.065 1.083.196.326.13.6.318.82.563l-.688.589a1.525 1.525 0 0 0-1.162-.503c-.286 0-.542.06-.766.178-.225.114-.4.276-.529.484a1.369 1.369 0 0 0-.185.71c0 .266.062.503.185.712.128.208.304.371.529.49.224.114.48.171.766.171.462 0 .85-.17 1.162-.508l.687.588c-.22.25-.493.44-.819.57-.326.13-.689.196-1.09.196ZM68.965 28.883h-2.147l-.41.92h-1.096l2.06-4.29h1.058l2.067 4.29h-1.123l-.41-.92Zm-.337-.753-.734-1.643-.733 1.643h1.467ZM73.125 29.876a2.87 2.87 0 0 1-1.281-.282 2.29 2.29 0 0 1-.899-.79 2.088 2.088 0 0 1-.323-1.146c0-.425.107-.805.323-1.14.22-.339.52-.602.899-.79a2.833 2.833 0 0 1 1.287-.288c.401 0 .762.065 1.084.196.325.13.599.318.819.563l-.687.589a1.525 1.525 0 0 0-1.163-.503c-.286 0-.541.06-.766.178-.225.114-.4.276-.528.484a1.369 1.369 0 0 0-.185.71c0 .266.061.503.185.712.127.208.303.371.528.49.224.114.48.171.766.171.462 0 .85-.17 1.163-.508l.687.588c-.22.25-.494.44-.82.57-.325.13-.689.196-1.089.196Zm-.357 1.348c-.114 0-.227-.012-.337-.037a.937.937 0 0 1-.277-.091l.158-.411c.141.061.284.092.43.092.229 0 .343-.066.343-.196 0-.119-.108-.178-.323-.178h-.225l.172-.65h.548l-.093.356c.194.02.337.075.43.165a.46.46 0 0 1 .145.344c0 .188-.088.335-.264.44-.176.111-.412.166-.707.166ZM78.71 28.883h-2.146l-.41.92h-1.096l2.06-4.29h1.058l2.067 4.29H79.12l-.41-.92Zm-.336-.753-.733-1.643-.733 1.643h1.466Zm-.231-2.948a.777.777 0 0 1-.317-.061 2.99 2.99 0 0 1-.297-.178 1.59 1.59 0 0 0-.179-.11.294.294 0 0 0-.357.055c-.057.057-.088.141-.092.251h-.522c.009-.273.082-.49.218-.65a.698.698 0 0 1 .555-.244.66.66 0 0 1 .304.067c.092.04.196.1.31.178.07.049.128.086.172.11a.309.309 0 0 0 .139.037c.088 0 .16-.029.218-.086a.353.353 0 0 0 .099-.245h.521c-.008.265-.083.478-.224.637a.686.686 0 0 1-.548.24ZM82.898 29.876c-.48 0-.914-.096-1.302-.288a2.281 2.281 0 0 1-.905-.79 2.078 2.078 0 0 1-.323-1.14c0-.421.108-.799.323-1.134.22-.339.522-.604.905-.796a2.892 2.892 0 0 1 1.302-.288c.48 0 .911.096 1.294.288.383.192.685.457.905.796.22.335.33.713.33 1.134 0 .42-.11.8-.33 1.14a2.28 2.28 0 0 1-.905.79 2.848 2.848 0 0 1-1.294.288Zm0-.846c.273 0 .52-.057.74-.171.22-.119.391-.282.514-.49.128-.209.192-.446.192-.711 0-.266-.064-.503-.192-.711a1.26 1.26 0 0 0-.515-.484 1.534 1.534 0 0 0-.74-.178c-.272 0-.519.06-.74.178-.22.114-.393.276-.521.484a1.369 1.369 0 0 0-.185.71c0 .266.062.503.185.712.128.208.302.371.522.49.22.114.467.171.74.171ZM89.621 29.876a4.18 4.18 0 0 1-1.063-.135 2.628 2.628 0 0 1-.82-.361l.364-.748c.198.135.433.243.706.325.273.082.546.122.82.122.303 0 .528-.04.673-.122.145-.086.218-.198.218-.337a.3.3 0 0 0-.132-.251.926.926 0 0 0-.33-.166 6.537 6.537 0 0 0-.542-.135 7.967 7.967 0 0 1-.865-.233 1.435 1.435 0 0 1-.581-.373c-.159-.172-.238-.4-.238-.687 0-.249.073-.473.218-.674.146-.204.363-.365.654-.484.295-.118.654-.177 1.076-.177.296 0 .584.032.866.098.282.065.528.159.74.282l-.33.753a2.73 2.73 0 0 0-1.282-.337c-.3 0-.522.045-.667.135-.141.09-.212.208-.212.355 0 .148.082.258.245.331.167.07.42.14.76.209.352.077.64.155.865.233.224.077.416.2.574.367.163.168.245.394.245.68 0 .245-.075.47-.225.674-.145.2-.365.36-.66.478-.295.119-.654.178-1.077.178ZM93.833 29.876a4.18 4.18 0 0 1-1.063-.135 2.628 2.628 0 0 1-.82-.361l.364-.748c.198.135.434.243.707.325.272.082.546.122.819.122.303 0 .528-.04.673-.122.145-.086.218-.198.218-.337a.3.3 0 0 0-.132-.251.926.926 0 0 0-.33-.166 6.568 6.568 0 0 0-.542-.135 8.003 8.003 0 0 1-.865-.233 1.436 1.436 0 0 1-.581-.373c-.159-.172-.238-.4-.238-.687 0-.249.073-.473.218-.674.145-.204.363-.365.654-.484.295-.118.654-.177 1.076-.177.296 0 .584.032.866.098.282.065.528.159.74.282l-.33.753a2.73 2.73 0 0 0-1.282-.337c-.3 0-.522.045-.667.135-.141.09-.212.208-.212.355 0 .148.082.258.245.331.167.07.42.14.76.209.352.077.64.155.865.233.224.077.416.2.574.367.163.168.245.394.245.68 0 .245-.075.47-.225.674-.145.2-.365.36-.66.478-.295.119-.654.178-1.077.178ZM96.526 25.513h1.07v3.48h2.318v.81h-3.388v-4.29Z" fill="#0F0D2A"/></g><defs><clipPath id="a"><path fill="#fff" d="M0 0h104v36H0z"/></clipPath></defs></svg>