<svg width="25" height="24" fill="none" xmlns="http://www.w3.org/2000/svg"><circle cx="12.961" cy="12" r="10" fill="url(#a)"/><path d="M13.086 8v1.063M13.086 16.5v-1.063M10.96 13.847v0c0 .88.714 1.594 1.595 1.594h1.164c.823 0 1.492-.668 1.492-1.492v0c0-.685-.465-1.281-1.13-1.447l-1.991-.5a1.492 1.492 0 0 1-1.13-1.447v0c0-.825.669-1.492 1.493-1.492h1.164c.88 0 1.594.713 1.594 1.593v0" stroke="#fff" stroke-width="1.5" stroke-linecap="round" stroke-linejoin="round"/><defs><linearGradient id="a" x1="12.961" y1="2" x2="24.461" y2="26" gradientUnits="userSpaceOnUse"><stop stop-color="#16CCF0"/><stop offset="1" stop-color="#751DFF"/></linearGradient></defs></svg>