<svg width="14" height="14" fill="none" xmlns="http://www.w3.org/2000/svg"><path d="M13.303 7.326c.2.1.364.255.492.465.137.2.205.424.205.67v1.6c0 .255-.068.483-.205.683-.128.2-.292.356-.492.465v.861c0 .383-.137.711-.41.985-.274.273-.607.41-.998.41H6.303V12.07h5.592V7.094c0-.675-.128-1.308-.383-1.9a4.755 4.755 0 0 0-1.053-1.56A4.793 4.793 0 0 0 7 2.2a4.85 4.85 0 0 0-3.473 1.436 4.864 4.864 0 0 0-1.039 1.558 4.752 4.752 0 0 0-.383 1.9v4.28h-.71c-.383 0-.711-.137-.985-.41A1.388 1.388 0 0 1 0 9.965V8.57c0-.264.064-.501.191-.71.128-.21.297-.374.506-.493 0-.984.173-1.877.52-2.68a6.582 6.582 0 0 1 1.394-2.05 6.247 6.247 0 0 1 2.024-1.313A6.344 6.344 0 0 1 7 .873c.83 0 1.622.155 2.379.465.766.31 1.436.747 2.01 1.312a6.325 6.325 0 0 1 1.394 2.038c.347.792.52 1.672.52 2.638Zm-7.698.547c0-.2-.068-.37-.205-.506a.687.687 0 0 0-.505-.205.671.671 0 0 0-.493.205.687.687 0 0 0-.205.506c0 .191.069.356.205.492.137.137.301.205.493.205.2 0 .369-.068.505-.205a.671.671 0 0 0 .205-.492Zm4.198 0c0-.2-.069-.37-.205-.506a.671.671 0 0 0-.493-.205c-.2 0-.369.068-.505.205a.687.687 0 0 0-.205.506c0 .191.068.356.205.492a.687.687 0 0 0 .505.205.671.671 0 0 0 .493-.205.671.671 0 0 0 .205-.492Zm1.394-1.38a5.614 5.614 0 0 1-1.572-.247A5.69 5.69 0 0 1 7.068 4.62a5.859 5.859 0 0 1-.847-1.258c-.1.465-.251.912-.451 1.34-.201.42-.452.807-.752 1.162a6.14 6.14 0 0 1-.998.944 5.556 5.556 0 0 1-1.204.67c-.045-.684.05-1.304.288-1.86.227-.556.546-1.03.957-1.422a4.57 4.57 0 0 1 1.394-.916 4.204 4.204 0 0 1 1.586-.314c.52 0 1.012.091 1.477.273.474.183.893.433 1.257.752a4.108 4.108 0 0 1 1.422 2.502Z" fill="#16CCF0"/></svg>