<svg width="14" height="15" fill="none" xmlns="http://www.w3.org/2000/svg"><path d="M7.3.176h1.15c.382 0 .76-.005 1.134-.014.027.447.123.889.287 1.326.164.429.41.798.738 1.108.329.328.711.574 1.149.738.437.155.88.26 1.326.314V6a7.43 7.43 0 0 1-1.258-.164 5.567 5.567 0 0 1-1.19-.41 4.135 4.135 0 0 1-.491-.246c-.155-.1-.31-.196-.465-.287v5.099c-.028.41-.11.811-.246 1.203a4.1 4.1 0 0 1-.547 1.094 4.272 4.272 0 0 1-1.504 1.34 4.04 4.04 0 0 1-1.942.533 4.109 4.109 0 0 1-1.244-.137c-.4-.1-.779-.255-1.135-.465A4.318 4.318 0 0 1 1.6 12.152a4.29 4.29 0 0 1-.67-1.927 7.01 7.01 0 0 1 0-.862c.045-.556.2-1.084.465-1.586.264-.51.61-.948 1.039-1.312a4.356 4.356 0 0 1 1.681-.902 4.08 4.08 0 0 1 1.9-.096c.01.428.005.861-.013 1.299-.01.428-.014.856-.014 1.285a2.122 2.122 0 0 0-.902-.082 1.696 1.696 0 0 0-.848.3 1.785 1.785 0 0 0-.492.452 2.155 2.155 0 0 0-.3.574c-.064.146-.096.3-.096.465 0 .155.004.31.013.465.064.483.297.897.698 1.244.4.337.847.483 1.34.437.328-.009.637-.1.93-.273.29-.173.519-.397.683-.67a2.86 2.86 0 0 0 .15-.287.898.898 0 0 0 .096-.328c.027-.52.036-1.04.027-1.559 0-.529.005-1.053.014-1.572V.176Z" fill="#16CCF0"/></svg>