<svg width="16" height="16" fill="none" xmlns="http://www.w3.org/2000/svg"><path fill-rule="evenodd" clip-rule="evenodd" d="M15.05.854c.247.248.425.556.514.895.333 1.248.333 3.851.333 3.851s0 2.603-.333 3.851a1.998 1.998 0 0 1-1.405 1.415c-1.243.334-6.21.334-6.21.334s-4.968 0-6.211-.334A1.997 1.997 0 0 1 .332 9.45C0 8.203 0 5.6 0 5.6s0-2.603.332-3.851A1.998 1.998 0 0 1 1.738.334C2.98 0 7.948 0 7.948 0s4.968 0 6.211.334c.338.092.645.271.892.52ZM10.478 5.6 6.323 3.237v4.727l4.154-2.363Z" fill="#16CCF0"/></svg>