<svg width="176" height="32" fill="none" xmlns="http://www.w3.org/2000/svg"><g clip-path="url(#a)"><path d="m51.914 7.922 2.224 6.913h5.713v17.163h7.77V14.835h8.05V7.922H51.914ZM77.665 7.922H93.42c4.334 0 8.083 3.166 8.083 8.428v.653c-.036 5.262-3.749 8.289-8.117 8.289h-7.911v6.706h-7.809V7.922Zm14.31 10.835c1.135 0 1.719-.825 1.754-1.96v-.309c0-1.169-.62-1.996-1.755-1.996h-6.5v4.265h6.5ZM103.735 7.922h8.014v17.302h12.107V32h-20.121V7.922ZM125.746 15.697c0-4.506 3.405-8.117 8.944-8.117h5.984c5.504 0 8.908 3.612 8.908 8.083v16.339h-7.772V26.19h-8.256v5.812h-7.808V15.697Zm16.064 3.99v-2.993c0-1.444-.861-2.063-2.064-2.063h-4.128c-1.203 0-2.064.619-2.064 2.063v2.993h8.256ZM160.138 27.321l-5.675-6.087c-2.03-2.03-2.374-3.68-2.374-6.295V7.922h7.808v6.707c0 2.338.997 3.268 2.477 4.884l1.65 1.41 1.755-1.479c1.444-1.583 2.373-2.477 2.373-4.815V7.922h7.809v7.017c0 2.614-.309 4.232-2.236 6.192l-5.814 6.19V32h-7.773v-4.679ZM22.065 23.606l1.771-5.503V7.923h-7.772v8.633H7.808V7.922H0V32h7.808v-8.53h8.256V32h7.772v-6.633l-1.771-1.76Z" fill="#6F00FF"/><path d="m49.618 8.79-2.828 2.638L39.438 0 28.934 9.795 24.73 22.856 33.923 32h11.03l9.192-9.144L49.62 8.79h-.002Zm-7.425 18.638H36.68l-4.597-4.572 2.262-7.032 1.414 1.319 3.678-5.715 5.251 4.898 2.1 6.53-4.596 4.572h.002Z" fill="#16CCF0"/></g><defs><clipPath id="a"><path fill="#fff" d="M0 0h175.961v32H0z"/></clipPath></defs></svg>