<svg width="14" height="15" viewBox="0 0 14 15" fill="none" xmlns="http://www.w3.org/2000/svg">
<path d="M7 1.43359C6.0612 1.43359 5.44596 1.43815 5.1543 1.44727C4.87174 1.44727 4.54362 1.45638 4.16992 1.47461C3.83268 1.48372 3.5638 1.51562 3.36328 1.57031C3.16276 1.61589 2.9987 1.66146 2.87109 1.70703C2.70703 1.77083 2.5612 1.84375 2.43359 1.92578C2.3151 2.00781 2.19206 2.11263 2.06445 2.24023C1.94596 2.35872 1.8457 2.48177 1.76367 2.60938C1.68164 2.72786 1.60872 2.86914 1.54492 3.0332C1.49935 3.16081 1.44922 3.32487 1.39453 3.52539C1.34896 3.72591 1.32161 3.99479 1.3125 4.33203C1.29427 4.70573 1.2806 5.03841 1.27148 5.33008C1.27148 5.62174 1.27148 6.23242 1.27148 7.16211C1.27148 8.10091 1.27148 8.71615 1.27148 9.00781C1.2806 9.29036 1.29427 9.61849 1.3125 9.99219C1.32161 10.3294 1.34896 10.5983 1.39453 10.7988C1.44922 10.9993 1.49935 11.1634 1.54492 11.291C1.60872 11.4551 1.68164 11.6009 1.76367 11.7285C1.8457 11.847 1.95052 11.9701 2.07812 12.0977C2.19661 12.2161 2.31966 12.3164 2.44727 12.3984C2.57487 12.4805 2.71615 12.5534 2.87109 12.6172C2.9987 12.6628 3.16276 12.7129 3.36328 12.7676C3.5638 12.8132 3.83268 12.8451 4.16992 12.8633C4.54362 12.8724 4.8763 12.8815 5.16797 12.8906C5.45964 12.8997 6.07031 12.9043 7 12.9043C7.9388 12.9043 8.54948 12.8997 8.83203 12.8906C9.1237 12.8815 9.45638 12.8724 9.83008 12.8633C10.1673 12.8451 10.4362 12.8132 10.6367 12.7676C10.8372 12.7129 11.0013 12.6628 11.1289 12.6172C11.293 12.5534 11.4342 12.4805 11.5527 12.3984C11.6803 12.3164 11.8079 12.2161 11.9355 12.0977C12.054 11.9701 12.1543 11.847 12.2363 11.7285C12.3184 11.6009 12.3913 11.4551 12.4551 11.291C12.5007 11.1634 12.5462 10.9993 12.5918 10.7988C12.6465 10.5983 12.6829 10.3294 12.7012 9.99219C12.7103 9.61849 12.7194 9.28581 12.7285 8.99414C12.7376 8.70247 12.7422 8.0918 12.7422 7.16211C12.7422 6.22331 12.7376 5.61263 12.7285 5.33008C12.7194 5.03841 12.7103 4.70573 12.7012 4.33203C12.6829 3.99479 12.6465 3.72591 12.5918 3.52539C12.5462 3.32487 12.5007 3.16081 12.4551 3.0332C12.3913 2.86914 12.3184 2.72786 12.2363 2.60938C12.1543 2.48177 12.054 2.35417 11.9355 2.22656C11.8079 2.10807 11.6803 2.00781 11.5527 1.92578C11.4342 1.84375 11.293 1.77083 11.1289 1.70703C11.0013 1.66146 10.8372 1.61589 10.6367 1.57031C10.4362 1.51562 10.1673 1.48372 9.83008 1.47461C9.45638 1.45638 9.1237 1.44727 8.83203 1.44727C8.54948 1.43815 7.9388 1.43359 7 1.43359ZM7 0.162109C7.94792 0.162109 8.57227 0.166667 8.87305 0.175781C9.17383 0.184896 9.51107 0.198568 9.88477 0.216797C10.2585 0.225911 10.5775 0.26237 10.8418 0.326172C11.1152 0.380859 11.3613 0.449219 11.5801 0.53125C11.8171 0.622396 12.0358 0.731771 12.2363 0.859375C12.4368 0.986979 12.6328 1.14648 12.8242 1.33789C13.0156 1.53841 13.1751 1.73893 13.3027 1.93945C13.4303 2.13997 13.5397 2.35417 13.6309 2.58203C13.7129 2.8099 13.7812 3.06055 13.8359 3.33398C13.8997 3.59831 13.9362 3.91732 13.9453 4.29102C13.9635 4.6556 13.9727 4.98828 13.9727 5.28906C13.9818 5.58984 13.9863 6.21875 13.9863 7.17578C13.9863 8.1237 13.9818 8.74805 13.9727 9.04883C13.9727 9.34961 13.9635 9.68685 13.9453 10.0605C13.9362 10.4251 13.8997 10.7441 13.8359 11.0176C13.7812 11.2819 13.7129 11.528 13.6309 11.7559C13.5397 11.9837 13.4303 12.1979 13.3027 12.3984C13.1751 12.599 13.0156 12.7949 12.8242 12.9863C12.6237 13.1868 12.4232 13.3509 12.2227 13.4785C12.0221 13.6061 11.8079 13.7109 11.5801 13.793C11.3613 13.8841 11.1152 13.957 10.8418 14.0117C10.5775 14.0664 10.2585 14.1029 9.88477 14.1211C9.51107 14.1393 9.17383 14.1484 8.87305 14.1484C8.57227 14.1576 7.94792 14.1621 7 14.1621C6.05208 14.1621 5.42773 14.1576 5.12695 14.1484C4.82617 14.1484 4.48893 14.1393 4.11523 14.1211C3.74154 14.1029 3.41797 14.0664 3.14453 14.0117C2.88021 13.957 2.63867 13.8841 2.41992 13.793C2.18294 13.7109 1.96419 13.6061 1.76367 13.4785C1.56315 13.3509 1.36719 13.1868 1.17578 12.9863C0.984375 12.7949 0.82487 12.599 0.697266 12.3984C0.569661 12.1979 0.460286 11.9837 0.369141 11.7559C0.277995 11.528 0.205078 11.2819 0.150391 11.0176C0.0957031 10.7441 0.0592448 10.4206 0.0410156 10.0469C0.0227865 9.67318 0.00911458 9.34049 0 9.04883C0 8.74805 0 8.11914 0 7.16211C0 6.21419 0 5.58984 0 5.28906C0.00911458 4.98828 0.0227865 4.65104 0.0410156 4.27734C0.0592448 3.90365 0.0957031 3.58464 0.150391 3.32031C0.205078 3.04688 0.277995 2.80078 0.369141 2.58203C0.460286 2.35417 0.569661 2.13997 0.697266 1.93945C0.82487 1.73893 0.984375 1.53841 1.17578 1.33789C1.36719 1.14648 1.56315 0.986979 1.76367 0.859375C1.96419 0.731771 2.18294 0.622396 2.41992 0.53125C2.63867 0.449219 2.88021 0.380859 3.14453 0.326172C3.41797 0.26237 3.74154 0.221354 4.11523 0.203125C4.48893 0.19401 4.82617 0.184896 5.12695 0.175781C5.42773 0.166667 6.05208 0.162109 7 0.162109ZM7 3.56641C7.49219 3.56641 7.95703 3.66211 8.39453 3.85352C8.83203 4.04492 9.21484 4.30469 9.54297 4.63281C9.87109 4.95182 10.1263 5.33008 10.3086 5.76758C10.5 6.20508 10.5957 6.66992 10.5957 7.16211C10.5957 7.66341 10.5 8.13281 10.3086 8.57031C10.1263 9.00781 9.87109 9.39062 9.54297 9.71875C9.21484 10.0378 8.83203 10.293 8.39453 10.4844C7.95703 10.6667 7.49219 10.7578 7 10.7578C6.50781 10.7578 6.04297 10.6667 5.60547 10.4844C5.16797 10.293 4.78516 10.0378 4.45703 9.71875C4.12891 9.39062 3.8737 9.00781 3.69141 8.57031C3.5 8.13281 3.4043 7.66341 3.4043 7.16211C3.4043 6.66992 3.5 6.20508 3.69141 5.76758C3.8737 5.33008 4.12891 4.95182 4.45703 4.63281C4.78516 4.30469 5.16797 4.04492 5.60547 3.85352C6.04297 3.66211 6.50781 3.56641 7 3.56641ZM7 9.5C7.64714 9.5 8.19857 9.27214 8.6543 8.81641C9.11003 8.36068 9.33789 7.80924 9.33789 7.16211C9.33789 6.52409 9.11003 5.97721 8.6543 5.52148C8.19857 5.06576 7.64714 4.83789 7 4.83789C6.35286 4.83789 5.80143 5.06576 5.3457 5.52148C4.88997 5.97721 4.66211 6.52409 4.66211 7.16211C4.66211 7.80924 4.88997 8.36068 5.3457 8.81641C5.80143 9.27214 6.35286 9.5 7 9.5ZM11.5801 3.42969C11.5801 3.20182 11.498 3.00586 11.334 2.8418C11.1699 2.67773 10.9694 2.5957 10.7324 2.5957C10.5046 2.5957 10.3086 2.67773 10.1445 2.8418C9.98047 3.00586 9.89844 3.20182 9.89844 3.42969C9.89844 3.65755 9.98047 3.85352 10.1445 4.01758C10.3086 4.18164 10.5046 4.26367 10.7324 4.26367C10.9694 4.26367 11.1699 4.18164 11.334 4.01758C11.498 3.85352 11.5801 3.65755 11.5801 3.42969Z" fill="#16CCF0"/>
</svg>
